<svg width="842" height="595" viewBox="0 0 842 595" fill="none" xmlns="http://www.w3.org/2000/svg">
<rect width="842" height="595" fill="#56F291"/>
<rect x="13" y="10" width="816" height="576" rx="18" stroke="black" stroke-width="4"/>
<rect x="21" y="18" width="800" height="220" rx="16" fill="black"/>
<path d="M786 46V210H741.885V46H786Z" fill="white"/>
<path d="M706.841 95.8038H671.355V83.7113C671.355 78.0682 670.901 74.474 669.993 72.9289C669.086 71.3837 667.573 70.6111 665.455 70.6111C663.156 70.6111 661.402 71.6524 660.192 73.735C659.042 75.8176 658.467 78.9751 658.467 83.2075C658.467 88.6491 659.133 92.7471 660.464 95.5015C661.734 98.2559 665.334 101.581 671.264 105.478C688.266 116.697 698.975 125.901 703.392 133.089C707.809 140.277 710.017 151.866 710.017 167.855C710.017 179.477 708.777 188.042 706.296 193.551C703.876 199.06 699.156 203.696 692.138 207.458C685.119 211.153 676.951 213 667.634 213C657.408 213 648.665 210.85 641.405 206.551C634.205 202.251 629.486 196.776 627.247 190.125C625.008 183.474 623.889 174.035 623.889 161.809V151.127H659.375V170.979C659.375 177.092 659.859 181.022 660.827 182.769C661.855 184.516 663.64 185.389 666.182 185.389C668.723 185.389 670.598 184.28 671.808 182.063C673.079 179.846 673.714 176.555 673.714 172.188C673.714 162.581 672.535 156.3 670.175 153.344C667.755 150.388 661.795 145.45 652.296 138.531C642.797 131.544 636.504 126.472 633.418 123.314C630.333 120.157 627.761 115.79 625.704 110.214C623.707 104.638 622.709 97.5169 622.709 88.8506C622.709 76.3551 624.131 67.2185 626.975 61.441C629.879 55.6635 634.538 51.1624 640.951 47.9378C647.365 44.6459 655.109 43 664.185 43C674.108 43 682.548 44.7803 689.506 48.3408C696.525 51.9014 701.153 56.4025 703.392 61.8441C705.691 67.2185 706.841 76.3887 706.841 89.3545V95.8038Z" fill="white"/>
<path d="M523.189 46.4262H591.637V79.0759H564.238V110.012H589.882V141.05H564.238V176.924H594.367V209.574H523.189V46.4262Z" fill="white"/>
<path d="M401.769 46.4262H430.268C448.664 46.4262 461.089 47.3667 467.543 49.2478C474.057 51.1288 479.003 54.2191 482.381 58.5187C485.758 62.8182 487.869 67.6216 488.714 72.9289C489.558 78.1689 489.98 88.5147 489.98 103.966V161.103C489.98 175.748 489.347 185.557 488.08 190.528C486.874 195.432 484.733 199.295 481.657 202.117C478.581 204.871 474.781 206.819 470.257 207.961C465.733 209.036 458.918 209.574 449.81 209.574H401.769V46.4262ZM439.858 74.3397V181.66C445.347 181.66 448.724 180.451 449.991 178.033C451.258 175.547 451.891 168.862 451.891 157.979V94.5945C451.891 87.2047 451.68 82.4685 451.258 80.3859C450.835 78.3033 449.87 76.7917 448.363 75.8512C446.855 74.8435 444.02 74.3397 439.858 74.3397Z" fill="white"/>
<path d="M367.655 46.4262V209.574H333.983L313.998 135.407V209.574H281.877V46.4262H313.998L335.534 119.888V46.4262H367.655Z" fill="white"/>
<path d="M179.924 46.4262H248.371V79.0759H220.973V110.012H246.616V141.05H220.973V176.924H251.102V209.574H179.924V46.4262Z" fill="white"/>
<path d="M152.625 46.4262L133.758 209.574H77.4231L56 46.4262H95.1435C99.6691 91.3699 102.902 129.36 104.841 160.398C106.781 129.024 108.808 101.145 110.924 76.7582L113.481 46.4262H152.625Z" fill="white"/>
<line x1="41" y1="316" x2="801" y2="316" stroke="black" stroke-width="4"/>
<line x1="41" y1="396" x2="801" y2="396" stroke="black" stroke-width="4"/>
<line x1="41" y1="476" x2="801" y2="476" stroke="black" stroke-width="4"/>
<line x1="41" y1="556" x2="801" y2="556" stroke="black" stroke-width="4"/>
<path d="M42.415 539V526.115H48.1279C49.2764 526.115 50.1494 526.232 50.7471 526.467C51.3447 526.695 51.8223 527.103 52.1797 527.688C52.5371 528.274 52.7158 528.922 52.7158 529.631C52.7158 530.545 52.4199 531.315 51.8281 531.942C51.2363 532.569 50.3223 532.968 49.0859 533.138C49.5371 533.354 49.8799 533.568 50.1143 533.779C50.6123 534.236 51.084 534.808 51.5293 535.493L53.7705 539H51.626L49.9209 536.319C49.4229 535.546 49.0127 534.954 48.6904 534.544C48.3682 534.134 48.0781 533.847 47.8203 533.683C47.5684 533.519 47.3105 533.404 47.0469 533.34C46.8535 533.299 46.5371 533.278 46.0977 533.278H44.1201V539H42.415ZM44.1201 531.802H47.7852C48.5645 531.802 49.1738 531.723 49.6133 531.564C50.0527 531.4 50.3867 531.143 50.6152 530.791C50.8438 530.434 50.958 530.047 50.958 529.631C50.958 529.021 50.7354 528.521 50.29 528.128C49.8506 527.735 49.1533 527.539 48.1982 527.539H44.1201V531.802ZM54.3031 527.935V526.115H55.8852V527.935H54.3031ZM54.3031 539V529.666H55.8852V539H54.3031ZM59.9949 539L56.4441 529.666H58.1141L60.118 535.256C60.3348 535.859 60.534 536.486 60.7156 537.137C60.8562 536.645 61.0525 536.053 61.3045 535.361L63.3787 529.666H65.0047L61.4715 539H59.9949ZM64.9133 534.333C64.9133 532.604 65.3937 531.324 66.3547 530.492C67.1574 529.801 68.1359 529.455 69.2902 529.455C70.5734 529.455 71.6223 529.877 72.4367 530.721C73.2512 531.559 73.6584 532.719 73.6584 534.201C73.6584 535.402 73.4768 536.349 73.1135 537.04C72.7561 537.726 72.2316 538.259 71.5402 538.64C70.8547 539.021 70.1047 539.211 69.2902 539.211C67.9836 539.211 66.926 538.792 66.1174 537.954C65.3146 537.116 64.9133 535.909 64.9133 534.333ZM66.5393 534.333C66.5393 535.528 66.8 536.425 67.3215 537.022C67.843 537.614 68.4992 537.91 69.2902 537.91C70.0754 537.91 70.7287 537.611 71.2502 537.014C71.7717 536.416 72.0324 535.505 72.0324 534.28C72.0324 533.126 71.7687 532.253 71.2414 531.661C70.7199 531.063 70.0695 530.765 69.2902 530.765C68.4992 530.765 67.843 531.061 67.3215 531.652C66.8 532.244 66.5393 533.138 66.5393 534.333ZM74.5865 539V526.115H76.1686V539H74.5865ZM77.4395 539.773L78.9775 540.002C79.042 540.477 79.2207 540.822 79.5137 541.039C79.9062 541.332 80.4424 541.479 81.1221 541.479C81.8545 541.479 82.4199 541.332 82.8184 541.039C83.2168 540.746 83.4863 540.336 83.627 539.809C83.709 539.486 83.7471 538.81 83.7412 537.778C83.0498 538.593 82.1885 539 81.1572 539C79.874 539 78.8809 538.537 78.1777 537.611C77.4746 536.686 77.123 535.575 77.123 534.28C77.123 533.39 77.2842 532.569 77.6064 531.819C77.9287 531.063 78.3945 530.48 79.0039 530.07C79.6191 529.66 80.3398 529.455 81.166 529.455C82.2676 529.455 83.1758 529.9 83.8906 530.791V529.666H85.3496V537.734C85.3496 539.188 85.2002 540.216 84.9014 540.819C84.6084 541.429 84.1396 541.909 83.4951 542.261C82.8564 542.612 82.0684 542.788 81.1309 542.788C80.0176 542.788 79.1182 542.536 78.4326 542.032C77.7471 541.534 77.416 540.781 77.4395 539.773ZM78.749 534.166C78.749 535.391 78.9922 536.284 79.4785 536.847C79.9648 537.409 80.5742 537.69 81.3066 537.69C82.0332 537.69 82.6426 537.412 83.1348 536.855C83.627 536.293 83.873 535.414 83.873 534.219C83.873 533.076 83.6182 532.215 83.1084 531.635C82.6045 531.055 81.9951 530.765 81.2803 530.765C80.5771 530.765 79.9795 531.052 79.4873 531.626C78.9951 532.194 78.749 533.041 78.749 534.166ZM93.2387 535.994L94.8734 536.196C94.6156 537.151 94.1381 537.893 93.4408 538.42C92.7436 538.947 91.8529 539.211 90.7689 539.211C89.4037 539.211 88.3197 538.792 87.517 537.954C86.7201 537.11 86.3217 535.93 86.3217 534.412C86.3217 532.842 86.726 531.623 87.5346 530.756C88.3432 529.889 89.392 529.455 90.6811 529.455C91.9291 529.455 92.9486 529.88 93.7396 530.729C94.5307 531.579 94.9262 532.774 94.9262 534.315C94.9262 534.409 94.9232 534.55 94.9174 534.737H87.9564C88.015 535.763 88.3051 536.548 88.8266 537.093C89.348 537.638 89.9984 537.91 90.7777 537.91C91.3578 537.91 91.8529 537.758 92.2631 537.453C92.6732 537.148 92.9984 536.662 93.2387 535.994ZM88.0443 533.437H93.2562C93.1859 532.651 92.9867 532.062 92.6586 531.67C92.1547 531.061 91.5014 530.756 90.6986 530.756C89.9721 530.756 89.3598 530.999 88.8617 531.485C88.3695 531.972 88.0971 532.622 88.0443 533.437ZM95.951 539V529.666H97.3748V531.081C97.7381 530.419 98.0721 529.982 98.3768 529.771C98.6873 529.561 99.0271 529.455 99.3963 529.455C99.9295 529.455 100.471 529.625 101.022 529.965L100.477 531.433C100.091 531.204 99.7039 531.09 99.3172 531.09C98.9715 531.09 98.6609 531.195 98.3855 531.406C98.1102 531.611 97.9139 531.898 97.7967 532.268C97.6209 532.83 97.533 533.445 97.533 534.113V539H95.951ZM100.43 536.214L101.994 535.968C102.082 536.595 102.325 537.075 102.724 537.409C103.128 537.743 103.691 537.91 104.411 537.91C105.138 537.91 105.677 537.764 106.029 537.471C106.38 537.172 106.556 536.823 106.556 536.425C106.556 536.067 106.401 535.786 106.09 535.581C105.873 535.44 105.334 535.262 104.473 535.045C103.313 534.752 102.507 534.5 102.056 534.289C101.611 534.072 101.271 533.776 101.036 533.401C100.808 533.021 100.694 532.602 100.694 532.145C100.694 531.729 100.787 531.345 100.975 530.993C101.168 530.636 101.429 530.34 101.757 530.105C102.003 529.924 102.337 529.771 102.759 529.648C103.187 529.52 103.644 529.455 104.13 529.455C104.862 529.455 105.504 529.561 106.055 529.771C106.612 529.982 107.022 530.27 107.285 530.633C107.549 530.99 107.731 531.471 107.83 532.074L106.283 532.285C106.213 531.805 106.008 531.43 105.668 531.16C105.334 530.891 104.86 530.756 104.244 530.756C103.518 530.756 102.999 530.876 102.689 531.116C102.378 531.356 102.223 531.638 102.223 531.96C102.223 532.165 102.287 532.35 102.416 532.514C102.545 532.684 102.747 532.824 103.023 532.936C103.181 532.994 103.647 533.129 104.42 533.34C105.539 533.639 106.319 533.885 106.758 534.078C107.203 534.266 107.552 534.541 107.804 534.904C108.056 535.268 108.182 535.719 108.182 536.258C108.182 536.785 108.027 537.283 107.716 537.752C107.411 538.215 106.969 538.575 106.389 538.833C105.809 539.085 105.153 539.211 104.42 539.211C103.207 539.211 102.281 538.959 101.643 538.455C101.01 537.951 100.606 537.204 100.43 536.214ZM109.171 527.935V526.115H110.754V527.935H109.171ZM109.171 539V529.666H110.754V539H109.171ZM122.471 537.849C121.885 538.347 121.32 538.698 120.775 538.903C120.236 539.108 119.656 539.211 119.035 539.211C118.009 539.211 117.221 538.962 116.67 538.464C116.12 537.96 115.844 537.318 115.844 536.539C115.844 536.082 115.947 535.666 116.152 535.291C116.363 534.91 116.635 534.605 116.969 534.377C117.309 534.148 117.69 533.976 118.112 533.858C118.422 533.776 118.891 533.697 119.518 533.621C120.795 533.469 121.736 533.287 122.339 533.076C122.345 532.859 122.348 532.722 122.348 532.663C122.348 532.019 122.199 531.564 121.9 531.301C121.496 530.943 120.895 530.765 120.098 530.765C119.354 530.765 118.803 530.896 118.446 531.16C118.094 531.418 117.833 531.878 117.663 532.54L116.117 532.329C116.257 531.667 116.489 531.134 116.811 530.729C117.133 530.319 117.599 530.006 118.208 529.789C118.818 529.566 119.524 529.455 120.327 529.455C121.123 529.455 121.771 529.549 122.269 529.736C122.767 529.924 123.133 530.161 123.368 530.448C123.602 530.729 123.766 531.087 123.86 531.521C123.912 531.79 123.939 532.276 123.939 532.979V535.089C123.939 536.56 123.971 537.491 124.036 537.884C124.106 538.271 124.241 538.643 124.44 539H122.787C122.623 538.672 122.518 538.288 122.471 537.849ZM122.339 534.315C121.765 534.55 120.904 534.749 119.755 534.913C119.105 535.007 118.645 535.112 118.375 535.229C118.106 535.347 117.898 535.52 117.751 535.748C117.605 535.971 117.532 536.22 117.532 536.495C117.532 536.917 117.69 537.269 118.006 537.55C118.329 537.831 118.797 537.972 119.412 537.972C120.022 537.972 120.564 537.84 121.038 537.576C121.513 537.307 121.862 536.94 122.084 536.478C122.254 536.12 122.339 535.593 122.339 534.896V534.315Z" fill="black"/>
</svg>
